<svg width="62" height="62" viewBox="0 0 62 62" fill="none" xmlns="http://www.w3.org/2000/svg">
<rect width="62" height="62" rx="31" fill="#234338"/>
<path fill-rule="evenodd" clip-rule="evenodd" d="M31.0002 39.5C30.296 39.5 29.7252 38.9292 29.7252 38.225L29.7252 26.9405L26.3943 30.6087C25.9062 31.1163 25.0991 31.1321 24.5915 30.6441C24.0839 30.156 24.0681 29.3489 24.5561 28.8413L30.0811 22.8913C30.3215 22.6413 30.6534 22.5 31.0002 22.5C31.347 22.5 31.6789 22.6413 31.9193 22.8913L37.4443 28.8413C37.9323 29.3489 37.9165 30.156 37.4089 30.6441C36.9013 31.1321 36.0942 31.1163 35.6061 30.6087L32.2752 26.9405V38.225C32.2752 38.9292 31.7044 39.5 31.0002 39.5Z" fill="white"/>
</svg>
